ffmpeg started on 2025-07-06 at 18:05:00
Report written to "D:\Convert\FFMetrics\reports\psnr_report-6.txt"
Log level: 32
Command line:
ffmpeg -hide_banner -nostdin -i "G:\\\xc0\xed\xe8\xec\xe5\\\xce\xed\xe3\xee\xe8\xed\xe3\xe8\\!_37_\xc7\xe8\xec\xe0_2025\\JamClub\\\xc3\xee\xeb\xf3\xe1\xe0\xff \xf8\xea\xe0\xf2\xf3\xeb\xea\xe0\\JamClub_Ao_no_Hako_17_1080p_HEVC.mkv" -i "G:\\\xc0\xed\xe8\xec\xe5\\\xce\xed\xe3\xee\xe8\xed\xe3\xe8\\!_37_\xc7\xe8\xec\xe0_2025\\JamClub\\\xc3\xee\xeb\xf3\xe1\xe0\xff \xf8\xea\xe0\xf2\xf3\xeb\xea\xe0\\JamClub_Ao_no_Hako_17_1080p.mp4" -lavfi "[0:v]settb=AVTB,setpts=PTS-STARTPTS,format=pix_fmts=yuv420p10,fps=24000/1001,scale=1920:1080:flags=bicubic[main];[1:v]settb=AVTB,setpts=PTS-STARTPTS,format=pix_fmts=yuv420p,fps=24000/1001,scale=1920:1080:flags=bicubic[ref];[main][ref]psnr=eof_action=endall:stats_file='D\\:/Convert/FFMetrics/logs/psnr_logfile-6.txt'" -f null -
Input #0, matroska,webm, from 'G:\Аниме\Онгоинги\!_37_Зима_2025\JamClub\Голубая шкатулка\JamClub_Ao_no_Hako_17_1080p_HEVC.mkv':
  Metadata:
    COMPATIBLE_BRANDS: isomiso2avc1mp41
    MAJOR_BRAND     : isom
    MINOR_VERSION   : 512
    ENCODER         : Lavf61.7.100
  Duration: 00:23:59.25, start: -0.001000, bitrate: 1014 kb/s
  Stream #0:0: Video: hevc (Main 10), yuv420p10le(tv, bt709, progressive), 1920x1080 [SAR 1:1 DAR 16:9], 23.98 fps, 23.98 tbr, 1k tbn (default)
      Metadata:
        HANDLER_NAME    : VideoHandler
        VENDOR_ID       : [0][0][0][0]
        ENCODER         : Lavc61.19.100 libx265
        BPS             : 817068
        DURATION        : 00:23:59.187708333
        NUMBER_OF_FRAMES: 34506
        NUMBER_OF_BYTES : 146989298
        _STATISTICS_WRITING_APP: mkvpropedit v66.0.0 ('Josie') 64-bit
        _STATISTICS_WRITING_DATE_UTC: 2025-07-06 10:02:50
        _STATISTICS_TAGS: BPS DURATION NUMBER_OF_FRAMES NUMBER_OF_BYTES
  Stream #0:1(eng): Audio: aac (LC), 48000 Hz, stereo, fltp (default)
      Metadata:
        HANDLER_NAME    : SoundHandler
        VENDOR_ID       : [0][0][0][0]
        ENCODER         : Lavc61.19.100 aac
        BPS             : 193047
        DURATION        : 00:23:59.213000000
        NUMBER_OF_FRAMES: 67464
        NUMBER_OF_BYTES : 34729534
        _STATISTICS_WRITING_APP: mkvpropedit v66.0.0 ('Josie') 64-bit
        _STATISTICS_WRITING_DATE_UTC: 2025-07-06 10:02:50
        _STATISTICS_TAGS: BPS DURATION NUMBER_OF_FRAMES NUMBER_OF_BYTES
Input #1, mov,mp4,m4a,3gp,3g2,mj2, from 'G:\Аниме\Онгоинги\!_37_Зима_2025\JamClub\Голубая шкатулка\JamClub_Ao_no_Hako_17_1080p.mp4':
  Metadata:
    major_brand     : isom
    minor_version   : 512
    compatible_brands: isomiso2avc1mp41
    encoder         : Lavf60.16.100
  Duration: 00:23:59.23, start: 0.000000, bitrate: 4071 kb/s
  Stream #1:0[0x1](und): Video: h264 (High) (avc1 / 0x31637661), yuv420p(progressive), 1920x1080 [SAR 1:1 DAR 16:9], 3873 kb/s, 23.98 fps, 23.98 tbr, 90k tbn (default)
      Metadata:
        handler_name    : VideoHandler
        vendor_id       : [0][0][0][0]
  Stream #1:1[0x2](eng): Audio: aac (LC) (mp4a / 0x6134706D), 48000 Hz, stereo, fltp, 191 kb/s (default)
      Metadata:
        handler_name    : SoundHandler
        vendor_id       : [0][0][0][0]
Stream mapping:
  Stream #0:0 (hevc) -> settb:default
  Stream #1:0 (h264) -> settb:default
  psnr:default -> Stream #0:0 (wrapped_avframe)
  Stream #0:1 -> #0:1 (aac (native) -> pcm_s16le (native))
Output #0, null, to 'pipe:':
  Metadata:
    COMPATIBLE_BRANDS: isomiso2avc1mp41
    MAJOR_BRAND     : isom
    MINOR_VERSION   : 512
    encoder         : Lavf61.7.100
  Stream #0:0: Video: wrapped_avframe, yuv420p10le(tv, bt709, progressive), 1920x1080 [SAR 1:1 DAR 16:9], q=2-31, 200 kb/s, 23.98 fps, 23.98 tbn
      Metadata:
        encoder         : Lavc61.19.100 wrapped_avframe
  Stream #0:1(eng): Audio: pcm_s16le, 48000 Hz, stereo, s16, 1536 kb/s (default)
      Metadata:
        HANDLER_NAME    : SoundHandler
        VENDOR_ID       : [0][0][0][0]
        _STATISTICS_TAGS: BPS DURATION NUMBER_OF_FRAMES NUMBER_OF_BYTES
        BPS             : 193047
        DURATION        : 00:23:59.213000000
        NUMBER_OF_FRAMES: 67464
        NUMBER_OF_BYTES : 34729534
        _STATISTICS_WRITING_APP: mkvpropedit v66.0.0 ('Josie') 64-bit
        _STATISTICS_WRITING_DATE_UTC: 2025-07-06 10:02:50
        encoder         : Lavc61.19.100 pcm_s16le
frame=  111 fps=0.0 q=-0.0 size=N/A time=00:00:04.62 bitrate=N/A speed=8.88x    frame=  256 fps=248 q=-0.0 size=N/A time=00:00:10.67 bitrate=N/A speed=10.3x    frame=  436 fps=282 q=-0.0 size=N/A time=00:00:18.18 bitrate=N/A speed=11.8x    frame=  716 fps=346 q=-0.0 size=N/A time=00:00:29.86 bitrate=N/A speed=14.4x    frame=  994 fps=385 q=-0.0 size=N/A time=00:00:41.45 bitrate=N/A speed=16.1x    frame= 1250 fps=404 q=-0.0 size=N/A time=00:00:52.13 bitrate=N/A speed=16.8x    frame= 1514 fps=420 q=-0.0 size=N/A time=00:01:03.14 bitrate=N/A speed=17.5x    frame= 1781 fps=431 q=-0.0 size=N/A time=00:01:14.28 bitrate=N/A speed=  18x    frame= 2038 fps=439 q=-0.0 size=N/A time=00:01:25.00 bitrate=N/A speed=18.3x    frame= 2306 fps=447 q=-0.0 size=N/A time=00:01:36.17 bitrate=N/A speed=18.7x    frame= 2576 fps=455 q=-0.0 size=N/A time=00:01:47.44 bitrate=N/A speed=  19x    frame= 2841 fps=459 q=-0.0 size=N/A time=00:01:58.49 bitrate=N/A speed=19.1x    frame= 3061 fps=456 q=-0.0 size=N/A time=00:02:07.66 bitrate=N/A speed=  19x    frame= 3286 fps=455 q=-0.0 size=N/A time=00:02:17.05 bitrate=N/A speed=  19x    frame= 3489 fps=451 q=-0.0 size=N/A time=00:02:25.52 bitrate=N/A speed=18.8x    frame= 3746 fps=454 q=-0.0 size=N/A time=00:02:36.23 bitrate=N/A speed=18.9x    frame= 3935 fps=449 q=-0.0 size=N/A time=00:02:44.12 bitrate=N/A speed=18.7x    frame= 4156 fps=448 q=-0.0 size=N/A time=00:02:53.33 bitrate=N/A speed=18.7x    frame= 4404 fps=450 q=-0.0 size=N/A time=00:03:03.68 bitrate=N/A speed=18.8x    frame= 4655 fps=451 q=-0.0 size=N/A time=00:03:14.15 bitrate=N/A speed=18.8x    frame= 4863 fps=449 q=-0.0 size=N/A time=00:03:22.82 bitrate=N/A speed=18.7x    frame= 5099 fps=450 q=-0.0 size=N/A time=00:03:32.67 bitrate=N/A speed=18.8x    frame= 5332 fps=449 q=-0.0 size=N/A time=00:03:42.38 bitrate=N/A speed=18.7x    frame= 5554 fps=449 q=-0.0 size=N/A time=00:03:51.64 bitrate=N/A speed=18.7x    frame= 5818 fps=451 q=-0.0 size=N/A time=00:04:02.65 bitrate=N/A speed=18.8x    frame= 6075 fps=453 q=-0.0 size=N/A time=00:04:13.37 bitrate=N/A speed=18.9x    frame= 6338 fps=455 q=-0.0 size=N/A time=00:04:24.34 bitrate=N/A speed=  19x    frame= 6584 fps=456 q=-0.0 size=N/A time=00:04:34.60 bitrate=N/A speed=  19x    frame= 6834 fps=457 q=-0.0 size=N/A time=00:04:45.03 bitrate=N/A speed=19.1x    frame= 7096 fps=459 q=-0.0 size=N/A time=00:04:55.96 bitrate=N/A speed=19.1x    frame= 7372 fps=461 q=-0.0 size=N/A time=00:05:07.47 bitrate=N/A speed=19.2x    frame= 7595 fps=460 q=-0.0 size=N/A time=00:05:16.77 bitrate=N/A speed=19.2x    frame= 7808 fps=459 q=-0.0 size=N/A time=00:05:25.65 bitrate=N/A speed=19.1x    frame= 8057 fps=460 q=-0.0 size=N/A time=00:05:36.04 bitrate=N/A speed=19.2x    frame= 8308 fps=460 q=-0.0 size=N/A time=00:05:46.51 bitrate=N/A speed=19.2x    frame= 8539 fps=460 q=-0.0 size=N/A time=00:05:56.14 bitrate=N/A speed=19.2x    frame= 8771 fps=460 q=-0.0 size=N/A time=00:06:05.82 bitrate=N/A speed=19.2x    frame= 9019 fps=460 q=-0.0 size=N/A time=00:06:16.16 bitrate=N/A speed=19.2x    frame= 9273 fps=461 q=-0.0 size=N/A time=00:06:26.76 bitrate=N/A speed=19.2x    frame= 9524 fps=462 q=-0.0 size=N/A time=00:06:37.23 bitrate=N/A speed=19.3x    frame= 9760 fps=462 q=-0.0 size=N/A time=00:06:47.07 bitrate=N/A speed=19.3x    frame=10034 fps=463 q=-0.0 size=N/A time=00:06:58.50 bitrate=N/A speed=19.3x    frame=10275 fps=463 q=-0.0 size=N/A time=00:07:08.55 bitrate=N/A speed=19.3x    frame=10523 fps=464 q=-0.0 size=N/A time=00:07:18.89 bitrate=N/A speed=19.3x    frame=10781 fps=465 q=-0.0 size=N/A time=00:07:29.65 bitrate=N/A speed=19.4x    frame=11059 fps=466 q=-0.0 size=N/A time=00:07:41.25 bitrate=N/A speed=19.4x    frame=11333 fps=468 q=-0.0 size=N/A time=00:07:52.68 bitrate=N/A speed=19.5x    frame=11606 fps=469 q=-0.0 size=N/A time=00:08:04.06 bitrate=N/A speed=19.6x    frame=11876 fps=470 q=-0.0 size=N/A time=00:08:15.32 bitrate=N/A speed=19.6x    frame=12143 fps=471 q=-0.0 size=N/A time=00:08:26.46 bitrate=N/A speed=19.6x    frame=12386 fps=471 q=-0.0 size=N/A time=00:08:36.59 bitrate=N/A speed=19.6x    frame=12575 fps=469 q=-0.0 size=N/A time=00:08:44.48 bitrate=N/A speed=19.6x    frame=12807 fps=468 q=-0.0 size=N/A time=00:08:54.15 bitrate=N/A speed=19.5x    frame=13031 fps=468 q=-0.0 size=N/A time=00:09:03.50 bitrate=N/A speed=19.5x    frame=13275 fps=468 q=-0.0 size=N/A time=00:09:13.67 bitrate=N/A speed=19.5x    frame=13523 fps=468 q=-0.0 size=N/A time=00:09:24.02 bitrate=N/A speed=19.5x    frame=13773 fps=469 q=-0.0 size=N/A time=00:09:34.44 bitrate=N/A speed=19.5x    frame=14020 fps=469 q=-0.0 size=N/A time=00:09:44.75 bitrate=N/A speed=19.6x    frame=14300 fps=470 q=-0.0 size=N/A time=00:09:56.42 bitrate=N/A speed=19.6x    frame=14570 fps=471 q=-0.0 size=N/A time=00:10:07.69 bitrate=N/A speed=19.6x    frame=14848 fps=472 q=-0.0 size=N/A time=00:10:19.28 bitrate=N/A speed=19.7x    frame=15092 fps=472 q=-0.0 size=N/A time=00:10:29.46 bitrate=N/A speed=19.7x    frame=15366 fps=473 q=-0.0 size=N/A time=00:10:40.89 bitrate=N/A speed=19.7x    frame=15624 fps=474 q=-0.0 size=N/A time=00:10:51.65 bitrate=N/A speed=19.8x    frame=15855 fps=473 q=-0.0 size=N/A time=00:11:01.28 bitrate=N/A speed=19.7x    frame=16130 fps=474 q=-0.0 size=N/A time=00:11:12.75 bitrate=N/A speed=19.8x    frame=16398 fps=475 q=-0.0 size=N/A time=00:11:23.93 bitrate=N/A speed=19.8x    frame=16669 fps=475 q=-0.0 size=N/A time=00:11:35.23 bitrate=N/A speed=19.8x    frame=16933 fps=476 q=-0.0 size=N/A time=00:11:46.24 bitrate=N/A speed=19.8x    frame=17193 fps=476 q=-0.0 size=N/A time=00:11:57.09 bitrate=N/A speed=19.9x    frame=17434 fps=476 q=-0.0 size=N/A time=00:12:07.14 bitrate=N/A speed=19.9x    frame=17694 fps=477 q=-0.0 size=N/A time=00:12:17.98 bitrate=N/A speed=19.9x    frame=17939 fps=477 q=-0.0 size=N/A time=00:12:28.20 bitrate=N/A speed=19.9x    frame=18169 fps=476 q=-0.0 size=N/A time=00:12:37.79 bitrate=N/A speed=19.9x    frame=18413 fps=476 q=-0.0 size=N/A time=00:12:47.97 bitrate=N/A speed=19.9x    frame=18686 fps=477 q=-0.0 size=N/A time=00:12:59.36 bitrate=N/A speed=19.9x    frame=18928 fps=477 q=-0.0 size=N/A time=00:13:09.45 bitrate=N/A speed=19.9x    frame=19210 fps=478 q=-0.0 size=N/A time=00:13:21.21 bitrate=N/A speed=19.9x    frame=19472 fps=478 q=-0.0 size=N/A time=00:13:32.14 bitrate=N/A speed=19.9x    frame=19745 fps=479 q=-0.0 size=N/A time=00:13:43.53 bitrate=N/A speed=  20x    frame=20012 fps=479 q=-0.0 size=N/A time=00:13:54.66 bitrate=N/A speed=  20x    frame=20278 fps=480 q=-0.0 size=N/A time=00:14:05.76 bitrate=N/A speed=  20x    frame=20529 fps=480 q=-0.0 size=N/A time=00:14:16.23 bitrate=N/A speed=  20x    frame=20782 fps=480 q=-0.0 size=N/A time=00:14:26.78 bitrate=N/A speed=  20x    frame=21032 fps=480 q=-0.0 size=N/A time=00:14:37.20 bitrate=N/A speed=  20x    frame=21294 fps=480 q=-0.0 size=N/A time=00:14:48.13 bitrate=N/A speed=  20x    frame=21556 fps=480 q=-0.0 size=N/A time=00:14:59.06 bitrate=N/A speed=  20x    frame=21819 fps=481 q=-0.0 size=N/A time=00:15:10.03 bitrate=N/A speed=20.1x    frame=22088 fps=481 q=-0.0 size=N/A time=00:15:21.25 bitrate=N/A speed=20.1x    frame=22359 fps=482 q=-0.0 size=N/A time=00:15:32.55 bitrate=N/A speed=20.1x    frame=22622 fps=482 q=-0.0 size=N/A time=00:15:43.52 bitrate=N/A speed=20.1x    frame=22896 fps=483 q=-0.0 size=N/A time=00:15:54.95 bitrate=N/A speed=20.1x    frame=23158 fps=483 q=-0.0 size=N/A time=00:16:05.88 bitrate=N/A speed=20.1x    frame=23427 fps=483 q=-0.0 size=N/A time=00:16:17.10 bitrate=N/A speed=20.2x    frame=23658 fps=483 q=-0.0 size=N/A time=00:16:26.73 bitrate=N/A speed=20.1x    frame=23906 fps=483 q=-0.0 size=N/A time=00:16:37.07 bitrate=N/A speed=20.1x    frame=24166 fps=483 q=-0.0 size=N/A time=00:16:47.92 bitrate=N/A speed=20.2x    frame=24438 fps=484 q=-0.0 size=N/A time=00:16:59.26 bitrate=N/A speed=20.2x    frame=24689 fps=484 q=-0.0 size=N/A time=00:17:09.73 bitrate=N/A speed=20.2x    frame=24940 fps=484 q=-0.0 size=N/A time=00:17:20.20 bitrate=N/A speed=20.2x    frame=25168 fps=483 q=-0.0 size=N/A time=00:17:29.71 bitrate=N/A speed=20.2x    frame=25435 fps=484 q=-0.0 size=N/A time=00:17:40.85 bitrate=N/A speed=20.2x    frame=25709 fps=484 q=-0.0 size=N/A time=00:17:52.27 bitrate=N/A speed=20.2x    frame=25976 fps=484 q=-0.0 size=N/A time=00:18:03.41 bitrate=N/A speed=20.2x    frame=26251 fps=485 q=-0.0 size=N/A time=00:18:14.88 bitrate=N/A speed=20.2x    frame=26534 fps=485 q=-0.0 size=N/A time=00:18:26.68 bitrate=N/A speed=20.2x    frame=26802 fps=486 q=-0.0 size=N/A time=00:18:37.86 bitrate=N/A speed=20.3x    frame=27075 fps=486 q=-0.0 size=N/A time=00:18:49.25 bitrate=N/A speed=20.3x    frame=27345 fps=487 q=-0.0 size=N/A time=00:19:00.51 bitrate=N/A speed=20.3x    frame=27632 fps=487 q=-0.0 size=N/A time=00:19:12.48 bitrate=N/A speed=20.3x    frame=27891 fps=487 q=-0.0 size=N/A time=00:19:23.28 bitrate=N/A speed=20.3x    frame=28152 fps=488 q=-0.0 size=N/A time=00:19:34.17 bitrate=N/A speed=20.3x    frame=28411 fps=488 q=-0.0 size=N/A time=00:19:44.97 bitrate=N/A speed=20.3x    frame=28688 fps=488 q=-0.0 size=N/A time=00:19:56.52 bitrate=N/A speed=20.4x    frame=28960 fps=488 q=-0.0 size=N/A time=00:20:07.87 bitrate=N/A speed=20.4x    frame=29207 fps=488 q=-0.0 size=N/A time=00:20:18.17 bitrate=N/A speed=20.4x    frame=29484 fps=489 q=-0.0 size=N/A time=00:20:29.72 bitrate=N/A speed=20.4x    frame=29755 fps=489 q=-0.0 size=N/A time=00:20:41.03 bitrate=N/A speed=20.4x    frame=30023 fps=489 q=-0.0 size=N/A time=00:20:52.20 bitrate=N/A speed=20.4x    frame=30270 fps=489 q=-0.0 size=N/A time=00:21:02.51 bitrate=N/A speed=20.4x    frame=30536 fps=489 q=-0.0 size=N/A time=00:21:13.60 bitrate=N/A speed=20.4x    frame=30782 fps=489 q=-0.0 size=N/A time=00:21:23.86 bitrate=N/A speed=20.4x    frame=31004 fps=489 q=-0.0 size=N/A time=00:21:33.12 bitrate=N/A speed=20.4x    frame=31251 fps=489 q=-0.0 size=N/A time=00:21:43.42 bitrate=N/A speed=20.4x    frame=31497 fps=489 q=-0.0 size=N/A time=00:21:53.68 bitrate=N/A speed=20.4x    frame=31737 fps=488 q=-0.0 size=N/A time=00:22:03.69 bitrate=N/A speed=20.4x    frame=32004 fps=489 q=-0.0 size=N/A time=00:22:14.83 bitrate=N/A speed=20.4x    frame=32271 fps=489 q=-0.0 size=N/A time=00:22:25.96 bitrate=N/A speed=20.4x    frame=32523 fps=489 q=-0.0 size=N/A time=00:22:36.48 bitrate=N/A speed=20.4x    frame=32751 fps=489 q=-0.0 size=N/A time=00:22:45.98 bitrate=N/A speed=20.4x    frame=32960 fps=488 q=-0.0 size=N/A time=00:22:54.70 bitrate=N/A speed=20.4x    frame=33138 fps=487 q=-0.0 size=N/A time=00:23:02.13 bitrate=N/A speed=20.3x    frame=33349 fps=486 q=-0.0 size=N/A time=00:23:10.93 bitrate=N/A speed=20.3x    frame=33575 fps=486 q=-0.0 size=N/A time=00:23:20.35 bitrate=N/A speed=20.3x    frame=33767 fps=485 q=-0.0 size=N/A time=00:23:28.36 bitrate=N/A speed=20.2x    frame=33965 fps=484 q=-0.0 size=N/A time=00:23:36.62 bitrate=N/A speed=20.2x    frame=34189 fps=484 q=-0.0 size=N/A time=00:23:45.96 bitrate=N/A speed=20.2x    frame=34436 fps=484 q=-0.0 size=N/A time=00:23:56.26 bitrate=N/A speed=20.2x    [Parsed_psnr_10 @ 000001d0ff3fe640] PSNR y:48.314597 u:50.862450 v:50.297516 average:48.944751 min:29.644631 max:inf
[out#0/null @ 000001d0f336c040] video:14827KiB audio:269856KiB subtitle:0KiB other streams:0KiB global headers:0KiB muxing overhead: unknown
frame=34506 fps=484 q=-0.0 Lsize=N/A time=00:23:59.18 bitrate=N/A speed=20.2x    
